<svg xmlns="http://www.w3.org/2000/svg" viewBox="0 0 391 235">
  <g clip-path="url(#clip0)">
    <path fill="#D0CDE1" d="M27.01 220.508L50.052 187.4l-23.054 36.709-.014 3.767a99.282 99.282 0 01-4.88-.16c-.007-.855 1.952-47.915 1.869-48.767.113-.032.177-4.45.222-4.644L.122 138.125l24.099 32.756.072.968 1.43-36.562L5.028 97.845l20.857 31.017c.008-.497.987-75.569.997-76.032.006.246.455 59.742.459 59.993l19.79-23.948-19.81 29.094-.1 32.723 18.365-31.644c-22.92 46.148-17.848 29.999-18.433 54.651l26.677-44.062-26.7 50.409-.121 40.462zM379.527 225.003l9.602-13.797-9.607 15.298-.005 1.57a41.286 41.286 0 01-2.034-.067c-.003-.357.813-19.968.778-20.322.048-.014.074-1.855.093-1.936l-10.032-15.077 10.043 13.65.03.404.596-15.237-8.624-15.603 8.692 12.926c.003-.207.411-31.491.415-31.684.003.102.19 24.896.191 25l8.248-9.98-8.256 12.125-.042 13.636 7.654-13.187c-9.552 19.231-7.438 12.502-7.682 22.775l11.117-18.362-11.126 21.007-.051 16.861z"/>
    <path fill="#D0CDE1" d="M194.714 235c107.537 0 194.713-3.415 194.713-7.629 0-4.213-87.176-7.628-194.713-7.628C87.176 219.743 0 223.158 0 227.371 0 231.585 87.176 235 194.714 235z"/>
    <path fill="#3F3D56" d="M289.164 90.103H66.842v132.546h222.322V90.103z"/>
    <path fill="#008A00" d="M121.863 90.103a53.168 53.168 0 01-55.02 52.267V90.103h55.02zM188.878 222.649h-21.145a11.262 11.262 0 0110.573-7.377 11.269 11.269 0 0110.572 7.377zM289.164 154.089v44.646a22.349 22.349 0 010-44.646z"/>
    <path fill="#fff" d="M248.322 138.267H108.07a6.55 6.55 0 100 13.1h140.252a6.55 6.55 0 000-13.1zM248.322 164.082H108.07a6.55 6.55 0 00-6.55 6.55 6.55 6.55 0 006.55 6.55h140.252a6.55 6.55 0 100-13.1zM248.321 189.898h-40.665a6.55 6.55 0 100 13.1h40.665a6.55 6.55 0 100-13.1z"/>
    <path fill="#A0616A" d="M324.421 40.73s6.113 2.377 6.453 10.189c.339 7.811-1.699 29.548-1.699 29.548s7.472 10.868 1.699 13.925c-5.774 3.057-6.453-12.227-6.453-12.227L317.628 49.9s4.076-9.51 6.793-9.17zM261.928 65.863s-14.604 9.51-15.284 2.038c-.679-7.472 4.416-36.68 4.416-36.68s.679-12.567 7.811-9.51c7.133 3.056-2.038 13.585-2.038 13.585l1.019 23.774 6.793-.34-2.717 7.133z"/>
    <path fill="#2F2E41" d="M285.362 74.693s-44.831-16.642-42.454 2.717c2.378 19.36 13.925 43.813 13.925 43.813l4.076 6.453h8.491l-5.435-34.982s19.36 10.868 25.133 9.17c0 0 7.472 49.926 10.189 53.662 2.717 3.736 7.472 48.907 7.472 48.907l4.416 5.434h8.49V133.45s14.605-47.549 3.397-49.926c-11.208-2.378-37.7-8.83-37.7-8.83z"/>
    <path fill="#2F2E41" d="M259.89 123.261s-2.038-3.736-5.434 0c-3.397 3.736-11.548 8.151-11.548 8.151s-17.661 4.076-3.396 7.472c14.264 3.396 15.963 0 15.963 0s2.377.679 4.415 1.358c2.038.68 15.283-1.698 15.283-3.736 0-2.037-4.496-14.216-6.324-12.372-1.827 1.844-8.959-.873-8.959-.873zM311.825 206.506s-5.007-4.124-6.186-2.946c-1.178 1.178-7.364 9.132-7.364 9.132s-16.496 12.666-1.473 14.728c15.023 2.062 14.14-3.535 14.14-3.535h4.713c.589 0 8.542-3.535 8.248-5.007-.295-1.473-3.83-13.483-5.008-12.633-1.178.85-7.07.261-7.07.261z"/>
    <path fill="#A0616A" d="M266.343 27.824c6.377 0 11.547-5.17 11.547-11.548 0-6.377-5.17-11.547-11.547-11.547-6.378 0-11.548 5.17-11.548 11.547 0 6.378 5.17 11.548 11.548 11.548z"/>
    <path fill="#A0616A" d="M274.494 14.918s8.831 7.472 14.944 7.472c6.113 0-8.83 13.925-8.83 13.925l-13.246-11.887 7.132-9.51z"/>
    <path fill="#575A89" d="M277.891 36.315l-.265-2.676s6.718-11.929 8.755-12.948c2.038-1.018 3.397-1.018 3.397-1.018s6.792-7.133 14.264-3.397c7.472 3.736 25.133 27.51 25.133 27.51s-12.566 1.02-10.868 10.869c0 0 12.566 32.265 9.17 32.605-3.396.34-13.585-2.038-24.114 2.717s-15.283 1.698-15.283 1.698l-5.435-17.661s-10.189-5.774-9.849-10.868l-14.774 6.623 1.358-12.567 9.001-10.359s-1.698-1.358 9.51-10.528z"/>
    <path fill="#2F2E41" d="M255.721 17.525a4.263 4.263 0 01-1.677 1.142c-.658.185-1.487-.042-1.749-.673l.489-.636-1.464-.91.638-.748-1.179-1.28.93-.738-1.771-1.268c2.296-3.747 4.779-7.54 8.405-10.024 3.625-2.484 8.691-3.367 12.405-1.018 1.928 1.22 3.291 3.156 4.383 5.16 2.197 4.028 4.133 7.956 4.419 12.535-1.38-1.343-3.394-2.1-4.774-3.444a10.342 10.342 0 00-2.059-1.686c-1.443-.814-3.17-.886-4.786-1.253-1.358-.309-2.24-.921-3.268-1.796-1.222-1.042-1.272-.64-2.507.533-2.144 2.036-4.289 4.07-6.435 6.104z"/>
  </g>
  <defs>
    <clipPath id="clip0">
      <path fill="#fff" d="M0 0h390.704v235H0z"/>
    </clipPath>
  </defs>
</svg>
