<?xml version="1.0" encoding="utf-8"?>
<svg xmlns="http://www.w3.org/2000/svg" viewBox="0 0 619.45 101.28"><path fill="#007acc" d="M50.64 0a50.64 50.64 0 1050.64 50.66A50.64 50.64 0 0050.64 0zm-15 76.79H18.9V64.18l16.75-4.39zm23.37 0H42.27v-56.6l16.75-5zm23.36 0H65.64V39.02l16.74-5.07zm54.41-15.86h-3.25v16.89h-12.61V26.94h16.38c12.39 0 20 5.53 20 16.59-.02 11.5-8.2 17.4-20.52 17.4zm-.22-24.48h-3.17v15h3c5.6 0 8.7-2.43 8.7-7.67-.05-4.9-2.93-7.33-8.53-7.33zm40.26 42.11c-9.95 0-17.25-7.15-17.25-18.73s7.37-18.88 17.33-18.88 17.4 7.23 17.4 18.8-7.45 18.81-17.48 18.81zm.08-28.47c-4.28 0-6.57 3.76-6.57 9.66s2.36 9.81 6.57 9.81 6.64-3.91 6.64-9.73-2.36-9.74-6.64-9.74zm76.99 27.73V26.94h31.71v10.1h-19.32v9.29h14.75v10.4h-14.75v11h20v10.1zm57.67.15h-11.13l-12.32-35.4 10.77-1.4 7.85 22.86 7.19-22.37h10.25zm46.91-15.41h-21.69c.59 5.68 4 7.89 8.85 7.89 4 0 5-.89 8.93-3.17l3.46 7.22a24.17 24.17 0 01-13.79 4.06c-10.84 0-18.58-5.75-18.58-18.66 0-11.8 7.22-18.95 17-18.95 11.07 0 16 8.26 16 18.73a15.28 15.28 0 01-.18 2.88zm-16.08-14.38c-3.1 0-5.31 2.72-5.68 8.26h11.36c-.34-5.46-2.29-8.26-5.68-8.26zm33.18 9.58v20.06h-10.91V41.66h10.91v7.15c2.22-4.13 5.24-6.93 10.55-7.3l.08 9.59c-5.39.4-7.9 3.71-10.63 6.66zm37.84 20.8c-3.25 9.44-7.67 12.69-15.56 12.69a16.65 16.65 0 01-4.21-.45v-8.33c1.18.37.89 0 3 0a6 6 0 005.9-3.47l.44-1.1-13.13-35.33 10.77-1.4 8.18 22.79 7.26-22.3h10.18zm57.81-.74h-10l-5.9-20.65-5.82 20.65h-10.14l-9.88-35.25 10.33-1.4 6.12 21.61 5.68-21.12h8.26l6.34 21 5.38-21h9.74zm85.33-15.26h-21.68c.59 5.68 4 7.89 8.85 7.89 4 0 4.94-.89 8.92-3.17l3.47 7.22a24.21 24.21 0 01-13.8 4.06c-10.84 0-18.58-5.75-18.58-18.66 0-11.8 7.23-18.95 17-18.95 11.06 0 16 8.26 16 18.73a14.48 14.48 0 01-.18 2.88zm-16.08-14.38c-3.1 0-5.31 2.72-5.68 8.26h11.36c-.37-5.46-2.29-8.26-5.68-8.26zm32.6 9.58v20.06h-10.92V41.66h10.92v6.56c2.21-4.13 5.23-6.34 10.54-6.71l.08 9.59c-5.39.4-7.9 3.71-10.62 6.66zm46.17 4.8h-21.69c.59 5.68 4 7.89 8.85 7.89 4 0 5-.89 8.93-3.17l3.46 7.22A24.17 24.17 0 01605 78.56c-10.84 0-18.58-5.75-18.58-18.66 0-11.8 7.22-18.95 17-18.95 11.07 0 16 8.26 16 18.73a15.28 15.28 0 01-.18 2.88zm-16.08-14.38c-3.1 0-5.31 2.72-5.68 8.26h11.36c-.37-5.46-2.29-8.26-5.68-8.26zM218.56 26.08h11.21v51.75h-11.21zm-18.14 0h11.21v51.75h-11.21zM486.49 26.08v51.74h11.13V54.08c2-2 4-3.25 6.13-3.25 2.65 0 3.68 1.77 3.68 4.35v22.64h11.21V52.16c0-7-3.54-11.21-10.25-11.21-4.42 0-7.74 2.28-10.77 5.23v-20.1z"/></svg>
