<svg xmlns="http://www.w3.org/2000/svg" width="293.437" height="47.997" viewBox="0 0 293.437 47.997">
  <defs>
      <style>
          path{fill:#007acc}
      </style>
  </defs>
  <path d="M24 0a24 24 0 1024 24A23.99 23.99 0 0024 0zm-7.126 36.373H8.965v-5.966l7.943-2.079v8.045zm11.079 0H20.01V9.579l7.943-2.386zm11.079 0h-7.943v-17.9l7.943-2.386z" class="cls-1"/>
  <path d="M64.803 28.873h-1.534v8.011h-6V12.749h7.772c5.863 0 9.477 2.625 9.477 7.875 0 5.454-3.886 8.249-9.715 8.249zM64.7 17.249h-1.5v7.09h1.4c2.659 0 4.125-1.159 4.125-3.648-.036-2.283-1.4-3.442-4.025-3.442z"/>
  <path d="M83.756 37.224c-4.7 0-8.181-3.375-8.181-8.863s3.477-8.931 8.215-8.931 8.249 3.409 8.249 8.9-3.544 8.894-8.283 8.894zm.034-13.5c-2.011 0-3.1 1.773-3.1 4.568 0 2.761 1.125 4.636 3.1 4.636 2.011 0 3.136-1.841 3.136-4.6s-1.09-4.598-3.136-4.598z"/>
  <path d="M120.265 36.849v-24.1h15.033v4.772h-9.17v4.4h6.988v4.943h-6.988v5.216h9.477v4.769z"/>
  <path d="M147.57 36.918h-5.284l-5.829-16.771 5.113-.648 3.75 10.84 3.375-10.6h4.841z"/>
  <path d="M169.796 29.623h-10.26c.273 2.693 1.875 3.75 4.193 3.75 1.875 0 2.352-.409 4.227-1.5l1.636 3.409a11.424 11.424 0 01-6.545 1.909c-5.147 0-8.795-2.727-8.795-8.829 0-5.591 3.409-8.965 8.079-8.965 5.25 0 7.568 3.92 7.568 8.863a6.921 6.921 0 01-.103 1.363zm-7.6-6.818c-1.466 0-2.523 1.3-2.693 3.92h5.386c-.172-2.591-1.092-3.92-2.694-3.92z"/>
  <path d="M177.909 27.369v9.511h-5.181V19.737h5.182v3.375a5.8 5.8 0 015.011-3.443l.034 4.534c-2.557.204-3.75 1.772-5.046 3.166z"/>
  <path d="M195.84 37.225c-1.534 4.466-3.648 6-7.363 6a7.823 7.823 0 01-1.977-.2v-3.959c.545.17.409 0 1.432 0a2.831 2.831 0 002.8-1.636l.2-.511-6.2-16.738 5.113-.648 3.882 10.806 3.409-10.533h4.807z"/>
  <path d="M223.213 36.85h-4.737l-2.8-9.783-2.761 9.783h-4.769l-4.67-16.7 4.875-.648 2.9 10.227 2.693-9.988h3.886l3 9.954 2.557-9.954h4.6z"/>
  <path d="M263.642 29.623h-10.26c.273 2.693 1.875 3.75 4.193 3.75 1.875 0 2.352-.409 4.227-1.5l1.636 3.409a11.423 11.423 0 01-6.545 1.909c-5.147 0-8.795-2.727-8.795-8.829 0-5.591 3.409-8.965 8.079-8.965 5.25 0 7.568 3.92 7.568 8.863a6.924 6.924 0 01-.103 1.363zm-7.636-6.818c-1.466 0-2.522 1.3-2.693 3.92h5.385c-.169-2.591-1.089-3.92-2.692-3.92z"/>
  <path d="M271.449 27.369v9.511h-5.181V19.737h5.182v3.1a5.559 5.559 0 015.011-3.17l.034 4.534c-2.557.206-3.75 1.774-5.046 3.168z"/>
  <path d="M293.334 29.623h-10.26c.273 2.693 1.875 3.75 4.193 3.75 1.875 0 2.352-.409 4.227-1.5l1.636 3.409a11.424 11.424 0 01-6.545 1.909c-5.147 0-8.795-2.727-8.795-8.829 0-5.591 3.409-8.965 8.079-8.965 5.25 0 7.568 3.92 7.568 8.863a6.919 6.919 0 01-.103 1.363zm-7.636-6.818c-1.466 0-2.523 1.3-2.693 3.92h5.385c-.169-2.591-1.055-3.92-2.691-3.92z"/>
  <path d="M103.528 12.34h5.318v24.51h-5.318z"/>
  <path d="M94.937 12.34h5.318v24.51h-5.318z"/>
  <path d="M230.44 12.34v24.51h5.284V25.601a4.227 4.227 0 012.9-1.534c1.261 0 1.739.852 1.739 2.045V36.85h5.318V24.714c0-3.307-1.67-5.318-4.841-5.318a7.288 7.288 0 00-5.113 2.488V12.34z"/>
</svg>
